<svg xmlns="http://www.w3.org/2000/svg" xmlns:xlink="http://www.w3.org/1999/xlink" viewBox="0 0 365.51 84.14"><defs><style>.cls-1{fill:url(#linear-gradient);}.cls-2{fill:#fff;}</style><linearGradient id="linear-gradient" x1="127.72" y1="2.62" x2="127.72" y2="245.08" gradientUnits="userSpaceOnUse"><stop offset="0" stop-color="#f60"/><stop offset="0.5" stop-color="red"/><stop offset="1" stop-color="#ff004b"/></linearGradient><symbol id="Q_RGB" data-name="Q RGB" viewBox="0 0 255.44 248.07"><path class="cls-1" d="M255.45,123.46C255.45,52.59,200.1,0,128,0,55,0,0,52.59,0,123.46S55,248.07,128,248.07H246.79a3.53,3.53,0,0,0,2.47-6.06l-30.37-29.74C241.66,190,255.45,158.9,255.45,123.46ZM127.88,186.33c-37.18,0-63.15-27.93-63.15-62.75,0-34.42,26-61.86,63.15-61.86,36.47,0,62.44,27.44,62.44,61.86C190.32,158.4,164.35,186.33,127.88,186.33Z"/></symbol><symbol id="type_white" data-name="type white" viewBox="0 0 255.44 37.3"><g id="type_3" data-name="type 3"><path class="cls-2" d="M46.32,25.94c0,4.41-2.44,6.89-6.27,6.89s-6.27-2.47-6.27-6.89V13.05h-4.9V26.22C28.88,33,33.12,37.3,40,37.3S51.22,33,51.22,26.22V13.05h-4.9Z"/><path class="cls-2" d="M143.64,12.3c-3.73,0-6.6,1.26-8.46,3.48-1.86-2.21-4.73-3.48-8.46-3.48-6.93,0-10.92,4.33-10.92,11.08V36.54h4.9V23.66c0-4.41,2.17-6.88,6-6.88s6,2.47,6,6.88V36.54h4.91V23.66c0-4.41,2.17-6.88,6-6.88s6,2.47,6,6.88V36.54h4.9V23.38C154.56,16.63,150.57,12.3,143.64,12.3Z"/><path class="cls-2" d="M55.61,36.54h4.87V12.11L55.61,14ZM58,8.79a3.06,3.06,0,1,0-3.16-3.06A3.08,3.08,0,0,0,58,8.79Z"/><polygon class="cls-2" points="107.23 13.06 99.76 22.41 96.29 22.41 96.29 0 91.38 1.89 91.38 36.54 96.29 36.54 96.29 26.81 99.83 26.77 107.23 36.54 113.47 36.54 103.75 24.56 113.47 13.06 107.23 13.06"/><path class="cls-2" d="M170.27,32.82c-4.49,0-7.62-3.56-7.62-8a7.58,7.58,0,1,1,15.16,0C177.81,29.26,174.68,32.82,170.27,32.82Zm0-20.36a12.14,12.14,0,0,0-12.52,12.37,12.5,12.5,0,0,0,25,0A12.15,12.15,0,0,0,170.27,12.46Z"/><path class="cls-2" d="M197.87,32.88c-2.73,0-7.19-1.94-7.19-8.1s4.47-8.06,7.19-8.06c4.45,0,7.55,3.73,7.55,8.06S202.32,32.88,197.87,32.88ZM198,12.46A11.21,11.21,0,0,0,190.68,15V0l-4.91,1.89V25.2c0,5.39,3.62,11.91,12.28,11.91a11.93,11.93,0,0,0,12.27-12.32A12,12,0,0,0,198,12.46Z"/><path class="cls-2" d="M213.71,36.54h4.86V12.11L213.71,14Zm2.41-27.75A3.06,3.06,0,1,0,213,5.74,3.08,3.08,0,0,0,216.12,8.79Z"/><polygon class="cls-2" points="223.36 36.54 228.27 36.54 228.27 0 223.36 1.89 223.36 36.54"/><path class="cls-2" d="M12.52,32.82c-4.49,0-7.62-3.56-7.62-8a7.58,7.58,0,1,1,15.16,0C20.06,29.26,16.92,32.82,12.52,32.82Zm12.48-8A12.15,12.15,0,0,0,12.52,12.46,12.14,12.14,0,0,0,0,24.83,12.22,12.22,0,0,0,12.49,37.3h15l-5.3-4.44A12.52,12.52,0,0,0,25,24.83Z"/><path class="cls-2" d="M236.51,23.06c.62-3.58,3.14-6.35,7.26-6.35,3.83,0,6.27,2.51,6.72,6.35Zm18.93,1.5c0-7.07-4.86-12-11.45-12a11.9,11.9,0,0,0-12.34,12.34A11.89,11.89,0,0,0,244,37.14c5.29,0,9.53-2.68,10.88-6.88H250A6.68,6.68,0,0,1,244.29,33h-.61a7.24,7.24,0,0,1-7.06-5.68,4.17,4.17,0,0,1-.1-.56h18.84S255.45,25.2,255.45,24.56Z"/><path class="cls-2" d="M76.7,17c3.28,0,5.73,1.82,6.36,4.61h5c-.83-5.42-5.53-9.12-11.41-9.12A12.19,12.19,0,0,0,64.22,24.91,12.17,12.17,0,0,0,76.7,37.3c5.87,0,10.58-3.68,11.41-9.07h-5C82.42,31,80,32.81,76.7,32.81c-4.59,0-7.55-3.52-7.55-7.9S72.11,17,76.7,17Z"/></g></symbol><symbol id="Orizontal_RGB_negativ" data-name="Orizontal RGB negativ" viewBox="0 0 365.51 84.14"><use width="255.45" height="248.07" transform="scale(0.34)" xlink:href="#Q_RGB"/><use id="type_white-3" data-name="type white" width="255.45" height="37.3" transform="translate(110.07 17.19)" xlink:href="#type_white"/></symbol></defs><title>QuickmobileArtboard 42</title><g id="logo"><use width="365.51" height="84.14" xlink:href="#Orizontal_RGB_negativ"/></g></svg>